<svg width="14" height="14" viewBox="0 0 14 14" fill="none" xmlns="http://www.w3.org/2000/svg">
<path d="M3.41801 6.57878V3.00032H3.88345V5.82181C3.88345 5.96602 4.00042 6.08283 4.14447 6.08283C4.289 6.08283 4.40581 5.96602 4.40581 5.82181V3.00032H4.91965V5.82181C4.91965 5.96602 5.03646 6.08283 5.18066 6.08283C5.32504 6.08283 5.44168 5.96602 5.44168 5.82181V3.00032H5.95552V5.82181C5.95552 5.96602 6.07233 6.08283 6.21686 6.08283C6.36107 6.08283 6.47805 5.96602 6.47805 5.82181V3.00032H6.94348V6.57878C6.94348 7.37611 6.41357 8.04924 5.68695 8.26662V13.8747C6.11269 13.9557 6.55138 14 7.00041 14C7.83531 14 8.63624 13.8527 9.37927 13.5831V10.3866H7.52327L7.51671 10.0043C7.50785 9.47705 7.46913 4.80989 8.82147 3.43442C9.09692 3.1547 9.41504 3.01246 9.76776 3.01246C9.98235 3.01246 10.1563 3.18652 10.1563 3.40128V13.2448C12.4342 12.0889 13.9998 9.72429 13.9998 6.99992C13.9998 3.14026 10.8597 0 7.00008 0C3.14026 0 0 3.14026 0 6.99992C0 10.0449 1.9546 12.6403 4.67471 13.601V8.26695C3.94776 8.04924 3.41801 7.37611 3.41801 6.57878Z" fill="#088F81"/>
</svg>
