<svg width="24" height="24" viewBox="0 0 24 24" fill="none" xmlns="http://www.w3.org/2000/svg">
<rect opacity="0.1" x="0.5" y="0.5" width="23" height="23" rx="3.5" fill="#088F81" stroke="#088F81"/>
<path d="M8.41801 11.5788V8.00032H8.88345V10.8218C8.88345 10.966 9.00042 11.0828 9.14447 11.0828C9.289 11.0828 9.40581 10.966 9.40581 10.8218V8.00032H9.91965V10.8218C9.91965 10.966 10.0365 11.0828 10.1807 11.0828C10.325 11.0828 10.4417 10.966 10.4417 10.8218V8.00032H10.9555V10.8218C10.9555 10.966 11.0723 11.0828 11.2169 11.0828C11.3611 11.0828 11.478 10.966 11.478 10.8218V8.00032H11.9435V11.5788C11.9435 12.3761 11.4136 13.0492 10.687 13.2666V18.8747C11.1127 18.9557 11.5514 19 12.0004 19C12.8353 19 13.6362 18.8527 14.3793 18.5831V15.3866H12.5233L12.5167 15.0043C12.5078 14.477 12.4691 9.80989 13.8215 8.43442C14.0969 8.1547 14.415 8.01246 14.7678 8.01246C14.9824 8.01246 15.1563 8.18652 15.1563 8.40128V18.2448C17.4342 17.0889 18.9998 14.7243 18.9998 11.9999C18.9998 8.14026 15.8597 5 12.0001 5C8.14026 5 5 8.14026 5 11.9999C5 15.0449 6.9546 17.6403 9.67471 18.601V13.2669C8.94776 13.0492 8.41801 12.3761 8.41801 11.5788Z" fill="#088F81"/>
</svg>
