<svg width="11" height="13" viewBox="0 0 11 13" fill="none" xmlns="http://www.w3.org/2000/svg">
<path fill-rule="evenodd" clip-rule="evenodd" d="M5.5 0C8.53267 0 11 2.486 11 5.542C11 9.29867 6.696 13 5.5 13C4.304 13 0 9.29867 0 5.542C0 2.486 2.46733 0 5.5 0ZM5.5 1C3.01867 1 1 3.038 1 5.542C1 8.728 4.74933 11.832 5.5 11.9973C6.25067 11.8313 10 8.72733 10 5.542C10 3.038 7.98133 1 5.5 1ZM5.50067 3.33333C6.69533 3.33333 7.66733 4.30533 7.66733 5.50067C7.66733 6.69533 6.69533 7.66667 5.50067 7.66667C4.306 7.66667 3.334 6.69533 3.334 5.50067C3.334 4.30533 4.306 3.33333 5.50067 3.33333ZM5.50067 4.33333C4.85733 4.33333 4.334 4.85667 4.334 5.50067C4.334 6.144 4.85733 6.66667 5.50067 6.66667C6.144 6.66667 6.66733 6.144 6.66733 5.50067C6.66733 4.85667 6.144 4.33333 5.50067 4.33333Z" fill="#868686"/>
</svg>
