<svg width="16" height="16" viewBox="0 0 16 16" fill="none" xmlns="http://www.w3.org/2000/svg">
<path fill-rule="evenodd" clip-rule="evenodd" d="M8 0C12.4112 0 16 3.58884 16 8C16 12.4112 12.4112 16 8 16C3.58884 16 0 12.4112 0 8C0 3.58884 3.58884 0 8 0ZM8 1.15819C4.22739 1.15819 1.15819 4.22816 1.15819 8C1.15819 11.7726 4.22739 14.8418 8 14.8418C11.7726 14.8418 14.8418 11.7726 14.8418 8C14.8418 4.22816 11.7726 1.15819 8 1.15819ZM10.9894 5.01102C11.1415 5.1639 11.1971 5.38859 11.1322 5.59321L9.90298 9.52256C9.84662 9.70401 9.70377 9.84608 9.5231 9.90244L5.59375 11.1324C5.53661 11.1502 5.47793 11.1587 5.42079 11.1587C5.26945 11.1587 5.1212 11.0992 5.01079 10.9896C4.85868 10.8367 4.80309 10.612 4.86795 10.4074L6.09794 6.47806C6.15431 6.29584 6.29638 6.15454 6.47706 6.09818L10.4064 4.86818C10.6126 4.80255 10.8365 4.85891 10.9894 5.01102ZM9.69683 6.30356L7.11252 7.11275L6.3041 9.69706L8.88764 8.88787L9.69683 6.30356Z" fill="#088F81"/>
</svg>
