<svg width="21" height="21" viewBox="0 0 21 21" fill="none" xmlns="http://www.w3.org/2000/svg">
<path fill-rule="evenodd" clip-rule="evenodd" d="M9.73879 0C15.1088 0 19.4768 4.368 19.4768 9.738C19.4768 12.2715 18.5045 14.5823 16.9134 16.3165L20.0442 19.4407C20.3372 19.7337 20.3382 20.2077 20.0452 20.5007C19.8992 20.6487 19.7062 20.7217 19.5142 20.7217C19.3232 20.7217 19.1312 20.6487 18.9842 20.5027L15.8156 17.343C14.1489 18.6778 12.0355 19.477 9.73879 19.477C4.36879 19.477 -0.000213623 15.108 -0.000213623 9.738C-0.000213623 4.368 4.36879 0 9.73879 0ZM9.73879 1.5C5.19579 1.5 1.49979 5.195 1.49979 9.738C1.49979 14.281 5.19579 17.977 9.73879 17.977C14.2808 17.977 17.9768 14.281 17.9768 9.738C17.9768 5.195 14.2808 1.5 9.73879 1.5Z" fill="white"/>
</svg>
