<svg width="24" height="24" viewBox="0 0 24 24" fill="none" xmlns="http://www.w3.org/2000/svg">
<rect opacity="0.1" x="0.5" y="0.5" width="23" height="23" rx="3.5" fill="#088F81" stroke="#088F81"/>
<path d="M14.3525 18.3665H9.63757V18.9998H14.3525V18.3665Z" fill="#088F81"/>
<path d="M8.08112 10.4735C8.08112 10.6827 8.2409 10.857 8.44425 10.8773C8.45878 10.8802 8.4704 10.8802 8.48492 10.8802H9.20248C9.19376 10.8337 9.18505 10.7872 9.17924 10.7437C9.15309 10.5839 9.14147 10.4241 9.13566 10.2614C9.10371 9.55839 9.23734 8.8786 9.52494 8.28306C9.78931 7.7369 10.1931 7.26337 10.6986 6.91476L10.7102 6.90605C11.0937 6.64459 11.5469 6.51386 11.9943 6.51677C12.4446 6.51386 12.8948 6.64459 13.2783 6.90605L13.2899 6.91476C13.7896 7.26337 14.1992 7.7369 14.4636 8.28306C14.7541 8.88151 14.8877 9.56711 14.8529 10.2759C14.85 10.4328 14.8354 10.5897 14.8122 10.7437C14.8064 10.7901 14.7977 10.8337 14.789 10.8802H15.5036C15.5152 10.8802 15.5298 10.8802 15.5443 10.8773C15.7476 10.857 15.9074 10.6827 15.9074 10.4735V6.1362H8.08112V10.4735Z" fill="#088F81"/>
<path d="M14.9083 12.6691H9.08649V13.3693H14.9083V12.6691Z" fill="#088F81"/>
<path d="M16.7203 7.5712H16.3514V8.12026H16.7203C16.8714 8.12026 16.9934 7.99825 16.9934 7.84718V7.84428C16.9934 7.69321 16.8714 7.5712 16.7203 7.5712Z" fill="#088F81"/>
<path d="M16.2148 4.99988H15.1429H14.1261H9.86724H8.85046H7.77557V5.70291H16.2148V4.99988Z" fill="#088F81"/>
<path d="M7.64493 8.12026V7.5712H7.27308C7.12201 7.5712 7 7.69321 7 7.84428V7.84718C7 7.99825 7.12201 8.12026 7.27308 8.12026H7.64493Z" fill="#088F81"/>
<path d="M13.0204 7.27079L13.0117 7.26498C12.7096 7.05872 12.3552 6.95414 11.9978 6.95123C11.6434 6.95414 11.289 7.05872 10.984 7.26498L10.9752 7.27079C10.5337 7.57583 10.1763 7.98835 9.94394 8.47059C9.68539 9.00222 9.55757 9.63263 9.575 10.2427C9.58081 10.3269 9.58662 10.4141 9.59533 10.4983C9.62438 10.7569 9.67958 10.998 9.75511 11.2304C9.8597 11.5326 9.99914 11.8143 10.1473 12.1049C10.1589 12.1252 10.1851 12.1775 10.2112 12.2298H13.7787C13.8048 12.1804 13.8309 12.1281 13.8426 12.1049C13.9878 11.8173 14.1302 11.5326 14.2348 11.2304C14.3103 10.998 14.3655 10.7569 14.3945 10.4983C14.4032 10.4083 14.412 10.3182 14.4149 10.2282C14.4294 9.62101 14.3016 8.99932 14.0459 8.47059C13.8193 7.99125 13.462 7.57583 13.0204 7.27079Z" fill="#088F81"/>
<path d="M9.77097 14.5729C9.77388 14.5788 9.77388 14.5846 9.77678 14.5904C9.9017 14.8693 10.0789 15.1191 10.291 15.3283L10.2939 15.3312C10.3229 15.3602 10.352 15.3864 10.381 15.4125C10.4217 15.4503 10.4653 15.488 10.5118 15.5229C10.5292 15.5345 10.5466 15.5491 10.5641 15.5607C10.5786 15.5723 10.596 15.5839 10.6105 15.5955C10.6251 15.6072 10.6367 15.6159 10.6512 15.6246C10.6628 15.6333 10.6745 15.6391 10.6861 15.6478C10.689 15.6507 10.6919 15.6507 10.6948 15.6536C10.7093 15.6623 10.7238 15.6711 10.7384 15.6798C10.7529 15.6914 10.7703 15.7001 10.7848 15.7088C10.7994 15.7175 10.8168 15.7263 10.8313 15.735C10.8342 15.735 10.8342 15.735 10.8342 15.735C10.8488 15.7408 10.8604 15.7495 10.8749 15.7553C10.8807 15.7611 10.8894 15.764 10.8952 15.7669C10.9098 15.7727 10.9214 15.7786 10.933 15.7844C10.933 15.7873 10.9359 15.7873 10.9359 15.7873C10.9533 15.796 10.9679 15.8018 10.9853 15.8105C10.9998 15.8163 11.0173 15.825 11.0318 15.8308C11.0347 15.8337 11.0405 15.8337 11.0434 15.8367C11.0579 15.8425 11.0754 15.8483 11.0899 15.8541C11.1073 15.8628 11.1247 15.8686 11.1422 15.8744C11.1596 15.8802 11.1741 15.886 11.1916 15.8919C11.209 15.9006 11.2293 15.9064 11.2497 15.9122C11.2671 15.918 11.2845 15.9238 11.302 15.9296C11.3368 15.9383 11.3688 15.947 11.4036 15.9558C11.4211 15.9616 11.4414 15.9674 11.4588 15.9703C11.4763 15.9732 11.4908 15.9761 11.5053 15.979C11.5111 15.979 11.5169 15.9819 11.5227 15.9819C11.5779 15.9935 11.6331 16.0022 11.6912 16.0081C11.7058 16.011 11.7203 16.0139 11.7348 16.0139C11.8162 16.0226 11.9004 16.0284 11.9846 16.0284C12.0689 16.0284 12.1531 16.0226 12.2374 16.0139C12.2519 16.011 12.2664 16.011 12.281 16.0081C12.3391 16.0022 12.3943 15.9935 12.4495 15.9819C12.4553 15.9819 12.4611 15.979 12.4669 15.979C12.4843 15.9761 12.4988 15.9732 12.5134 15.9703C12.5308 15.9645 12.5511 15.9616 12.5686 15.9558C12.6034 15.95 12.6354 15.9383 12.6702 15.9296C12.6877 15.9238 12.7051 15.918 12.7225 15.9122C12.74 15.9064 12.7603 15.9006 12.7777 15.8948C12.7952 15.886 12.8126 15.8802 12.83 15.8744C12.8475 15.8686 12.8649 15.8599 12.8823 15.8541C12.8997 15.8483 12.9172 15.8425 12.9346 15.8337C12.9695 15.8192 13.0043 15.8018 13.0363 15.7873C13.0537 15.7815 13.0682 15.7727 13.0857 15.764C13.1031 15.7553 13.1205 15.7466 13.1351 15.7379C13.167 15.7205 13.199 15.703 13.2309 15.6827C13.2455 15.6711 13.26 15.6623 13.2745 15.6536C13.2774 15.6536 13.2774 15.6507 13.2803 15.6507C13.2948 15.6391 13.3094 15.6304 13.3239 15.6217C13.3384 15.613 13.35 15.6042 13.3617 15.5955C13.3791 15.5868 13.3936 15.5752 13.4081 15.5636C13.4256 15.552 13.443 15.5403 13.4604 15.5258C13.504 15.4909 13.5476 15.4532 13.5912 15.4154C13.6202 15.3893 13.6493 15.3631 13.6783 15.3341C13.6783 15.3341 13.6783 15.3312 13.6812 15.3312C13.8933 15.122 14.0676 14.8722 14.1925 14.5962C14.1954 14.5904 14.1983 14.5817 14.2012 14.5758C14.3087 14.3318 14.3726 14.0762 14.3813 13.806H9.57343C9.59667 14.0704 9.66058 14.3289 9.77097 14.5729Z" fill="#088F81"/>
<path d="M13.3297 16.1316C13.292 16.1519 13.2542 16.1722 13.2164 16.1897C13.2019 16.1955 13.1903 16.2013 13.1758 16.2071C13.138 16.2274 13.0973 16.242 13.0567 16.2594C13.0305 16.271 13.0015 16.2826 12.9753 16.2914C12.9608 16.2972 12.9492 16.3001 12.9347 16.3059C12.923 16.3117 12.9143 16.3146 12.9027 16.3175C12.8707 16.3262 12.8388 16.3378 12.8068 16.3465C12.7923 16.3495 12.7778 16.3553 12.7633 16.3582C12.7487 16.3611 12.7342 16.3669 12.7197 16.3698C12.7052 16.3756 12.6906 16.3785 12.6761 16.3814C12.6616 16.3872 12.6471 16.3901 12.6325 16.393C12.6151 16.3959 12.5977 16.4017 12.5802 16.4047C12.5657 16.4076 12.5512 16.4105 12.5367 16.4134C12.5134 16.4163 12.4873 16.4221 12.464 16.425C12.464 16.425 12.4611 16.425 12.4582 16.425C12.4495 16.425 12.4437 16.4279 12.435 16.4279C12.4117 16.4337 12.3856 16.4366 12.3624 16.4395C12.3449 16.4424 12.3246 16.4424 12.3072 16.4453C12.2839 16.4482 12.2636 16.4482 12.2403 16.4511C12.22 16.454 12.2026 16.4569 12.1822 16.4569C12.1532 16.4569 12.1241 16.4598 12.0951 16.4598C12.066 16.4598 12.0341 16.4598 12.0021 16.4598C11.9702 16.4598 11.9382 16.4598 11.9092 16.4598C11.8801 16.4598 11.8511 16.4598 11.822 16.4569C11.8046 16.4569 11.7842 16.4569 11.7668 16.454C11.7436 16.454 11.7174 16.4511 11.6942 16.4482C11.6768 16.4453 11.6593 16.4453 11.6419 16.4424C11.6187 16.4395 11.5925 16.4337 11.5693 16.4308C11.5605 16.4308 11.5547 16.4279 11.546 16.4279C11.546 16.4279 11.5431 16.4279 11.5402 16.4279C11.517 16.425 11.4908 16.4221 11.4676 16.4163C11.4531 16.4134 11.4385 16.4105 11.424 16.4076C11.4066 16.4047 11.3891 16.3988 11.3717 16.3959C11.3572 16.3901 11.3427 16.3872 11.3281 16.3843C11.3136 16.3814 11.2991 16.3756 11.2846 16.3727C11.27 16.3698 11.2555 16.364 11.241 16.3611C11.2265 16.3582 11.2119 16.3524 11.1974 16.3495C11.1684 16.3407 11.1364 16.3291 11.1074 16.3204C11.0841 16.3117 11.058 16.303 11.0318 16.2943C10.9098 16.2507 10.7907 16.1955 10.6745 16.1345C10.66 16.1287 10.6484 16.12 10.6367 16.1141C10.4653 16.6312 10.3114 17.2617 10.2707 17.9269H13.7394C13.7016 17.2587 13.5476 16.6283 13.3733 16.1112C13.3559 16.117 13.3443 16.1258 13.3297 16.1316Z" fill="#088F81"/>
</svg>
